# xmcd CD database file
#
# Track frame offsets:
#	150
#	26190
#	55187
#	84497
#	110477
#	129062
#	155060
#	186065
#	209360
#	226295
#
# Disc length: 3296 seconds
#
# Revision: 1
# Processed by: cddbd v1.5.2PL0 Copyright (c) Steve Scherf et al.
# Submitted via: CDex 1.70beta2
#
DISCID=7f0cde0a
DTITLE=三代目魚武濱田成夫 - 続・三代目魚武濱田成夫
DYEAR=1997
DGENRE=Blues
TTITLE0=ファイト!
TTITLE1=りん
TTITLE2=ふとん
TTITLE3=虹のひと部屋
TTITLE4=横れん慕
TTITLE5=荒城の月
TTITLE6=舟唄
TTITLE7=名前も知らないけれど
TTITLE8=赤い風船
TTITLE9=ジェットぶろ
EXTD=YEAR: 1997
EXTT0=
EXTT1=
EXTT2=
EXTT3=
EXTT4=
EXTT5=
EXTT6=
EXTT7=
EXTT8=
EXTT9=
PLAYORDER=
